<svg width="32" height="32" viewBox="0 0 32 32" fill="none" xmlns="http://www.w3.org/2000/svg">
    <path fill-rule="evenodd" clip-rule="evenodd" d="M15.9924 17.8779L23.5314 25.4174C23.7828 25.6602 24.1194 25.7945 24.4688 25.7915C24.8183 25.7885 25.1525 25.6483 25.3996 25.4012C25.6467 25.1541 25.7869 24.8198 25.7899 24.4704C25.7929 24.1209 25.6586 23.7842 25.4159 23.5329L17.8768 15.9933L25.4159 8.45375C25.6586 8.20239 25.7929 7.86572 25.7899 7.51627C25.7869 7.16682 25.6467 6.83254 25.3996 6.58543C25.1525 6.33832 24.8183 6.19816 24.4688 6.19512C24.1194 6.19208 23.7828 6.32642 23.5314 6.5692L15.9924 14.1088L8.45339 6.5692C8.20091 6.33242 7.86622 6.20317 7.52014 6.20879C7.17407 6.21441 6.84375 6.35446 6.5991 6.59931C6.35444 6.84416 6.21463 7.17459 6.20925 7.5207C6.20388 7.8668 6.33336 8.20142 6.5703 8.45375L14.108 15.9933L6.56896 23.5329C6.44168 23.6558 6.34015 23.8029 6.27031 23.9655C6.20046 24.1281 6.1637 24.303 6.16216 24.4799C6.16062 24.6569 6.19434 24.8324 6.26135 24.9962C6.32836 25.16 6.42731 25.3088 6.55244 25.434C6.67757 25.5591 6.82637 25.6581 6.99015 25.7251C7.15394 25.7921 7.32942 25.8258 7.50638 25.8243C7.68333 25.8227 7.85821 25.786 8.0208 25.7161C8.18339 25.6463 8.33045 25.5447 8.45339 25.4174L15.9924 17.8779Z" fill="white"/>
</svg>