<svg width="20" height="20" viewBox="0 0 20 20" fill="none" xmlns="http://www.w3.org/2000/svg">
<path fill-rule="evenodd" clip-rule="evenodd" d="M9.99241 11.878L17.5314 19.4176C17.7828 19.6603 18.1194 19.7947 18.4688 19.7916C18.8183 19.7886 19.1525 19.6484 19.3996 19.4013C19.6467 19.1542 19.7869 18.8199 19.7899 18.4705C19.7929 18.121 19.6586 17.7844 19.4159 17.533L11.8768 9.99344L19.4159 2.45388C19.6586 2.20251 19.7929 1.86585 19.7899 1.51639C19.7869 1.16694 19.6467 0.832663 19.3996 0.585554C19.1525 0.338445 18.8183 0.198277 18.4688 0.195241C18.1194 0.192204 17.7828 0.326541 17.5314 0.569319L9.99241 8.10888L2.45339 0.569319C2.20091 0.332543 1.86622 0.20329 1.52014 0.20891C1.17407 0.21453 0.843754 0.354582 0.599095 0.599432C0.354436 0.844281 0.214628 1.17472 0.209253 1.52082C0.203878 1.86693 0.333358 2.20155 0.570296 2.45388L8.10799 9.99344L0.568963 17.533C0.441678 17.6559 0.340151 17.803 0.270306 17.9656C0.200461 18.1282 0.163697 18.3031 0.16216 18.4801C0.160622 18.657 0.194341 18.8325 0.26135 18.9963C0.328359 19.1601 0.427315 19.3089 0.552445 19.4341C0.677575 19.5592 0.826372 19.6582 0.990155 19.7252C1.15394 19.7922 1.32942 19.8259 1.50638 19.8244C1.68333 19.8228 1.85821 19.7861 2.0208 19.7162C2.18339 19.6464 2.33045 19.5448 2.45339 19.4176L9.99241 11.878Z" fill="white"/>
</svg>
