<svg width="19" height="18" viewBox="0 0 19 18" fill="none" xmlns="http://www.w3.org/2000/svg">
<path d="M3.92383 2.19857L3.93261 2.18979H3.94504H14.445V2.18966L14.4478 2.18991C14.8926 2.23035 15.3071 2.37193 15.6911 2.61442C16.0769 2.85813 16.3511 3.20357 16.5132 3.64953L16.5197 3.66739L16.5064 3.68089L10.8064 9.44089L10.8063 9.441C10.3604 9.8868 9.81274 10.1098 9.16504 10.1098C8.51734 10.1098 7.96963 9.8868 7.52383 9.441L7.52371 9.44089L1.82372 3.68089L1.81035 3.66739L1.81685 3.64953C1.97901 3.20357 2.25315 2.85813 2.63902 2.61442C3.02012 2.37373 3.4315 2.25206 3.87258 2.24982L3.92383 2.19857ZM1.63504 5.63979V5.56799L1.68612 5.61844L6.54612 10.4184L6.54625 10.4186C7.0227 10.895 7.57822 11.2223 8.21316 11.4009C8.84785 11.5794 9.48223 11.5794 10.1169 11.4009C10.7519 11.2223 11.3074 10.895 11.7838 10.4186L11.784 10.4184L16.644 5.61844L16.695 5.56799V5.63979V13.4998C16.695 14.1475 16.472 14.6855 16.0258 15.1115C15.5937 15.5239 15.0662 15.7364 14.445 15.7492V15.7498H14.385H3.94504C3.29777 15.7498 2.75022 15.5371 2.30432 15.1115C1.85806 14.6855 1.63504 14.1475 1.63504 13.4998V5.63979ZM16.2605 1.28605C15.6846 0.968281 15.0792 0.789618 14.4441 0.749786H3.94589C3.27058 0.789639 2.64525 0.968418 2.06953 1.28605C1.49433 1.6034 1.03823 2.04954 0.70092 2.62496C0.363649 3.2003 0.195039 3.82505 0.195039 4.49979V13.4998C0.195039 14.1745 0.363649 14.7993 0.70092 15.3746C1.03823 15.95 1.49433 16.3962 2.06953 16.7135C2.6455 17.0313 3.25089 17.21 3.88598 17.2498H14.4441C15.0792 17.21 15.6846 17.0313 16.2605 16.7135C16.8357 16.3962 17.2918 15.95 17.6292 15.3746C17.9664 14.7993 18.135 14.1745 18.135 13.4998V4.49979C18.135 3.82505 17.9664 3.2003 17.6292 2.62496C17.2918 2.04954 16.8357 1.6034 16.2605 1.28605Z" fill="#111111" stroke="#111111" stroke-width="0.06"/>
</svg>
