<svg width="18" height="11" viewBox="0 0 18 11" fill="none" xmlns="http://www.w3.org/2000/svg">
<path d="M16.6475 0.168701H0.665039V10.8312H17.325V0.168701H16.6475ZM15.9807 0.834951L9.54441 7.2712C9.25066 7.56495 8.73879 7.56495 8.44504 7.2712L2.00754 0.834951H15.9807ZM1.33129 1.10058L5.65816 5.42683L1.33129 9.7537V1.09995V1.10058ZM1.86316 10.165L6.13004 5.8987L7.97441 7.74245C8.24691 8.01495 8.60942 8.16558 8.99504 8.16558C9.38066 8.16558 9.74317 8.01495 10.0157 7.74245L11.86 5.89808L16.1263 10.1643H1.86254L1.86316 10.165ZM16.6588 9.75433L12.3319 5.42683L16.6588 1.09933V9.75433Z" fill="white"/>
</svg>
