<svg width="15" height="16" viewBox="0 0 15 16" fill="none" xmlns="http://www.w3.org/2000/svg">
<path d="M14.5617 6.89967H7.62249V9.7755H11.6158C11.2442 11.603 9.68832 12.653 7.62249 12.653C5.18666 12.653 3.22332 10.6897 3.22332 8.253C3.22332 5.81717 5.18666 3.85384 7.62249 3.85384C8.67166 3.85384 9.61999 4.22634 10.3642 4.8355L12.5308 2.66967C11.2108 1.51884 9.51832 0.808838 7.62249 0.808838C3.49416 0.808838 0.17749 4.12467 0.17749 8.25384C0.17749 12.383 3.49332 15.6988 7.62249 15.6988C11.345 15.6988 14.73 12.9913 14.73 8.25384C14.73 7.81384 14.6625 7.33967 14.5617 6.89967Z" fill="#E36756"/>
</svg>
