<svg width="20" height="20" viewBox="0 0 20 20" fill="none" xmlns="http://www.w3.org/2000/svg">
<path d="M7.00234 18.007V13.0129H2.01405V18.007H7.00234ZM7.00234 20H2.01405C1.45199 20 0.9758 19.8046 0.58548 19.4138C0.19516 19.0231 0 18.5541 0 18.007V13.0129C0 12.4502 0.19516 11.9734 0.58548 11.5826C0.9758 11.1919 1.45199 10.9965 2.01405 10.9965H7.00234C7.54879 10.9965 8.01717 11.1919 8.40749 11.5826C8.79781 11.9734 8.99297 12.4502 8.99297 13.0129V18.007C8.99297 18.5541 8.79781 19.0231 8.40749 19.4138C8.01717 19.8046 7.54879 20 7.00234 20ZM17.9859 18.007V13.0129H12.9977V18.007H17.9859ZM17.9859 20H12.9977C12.4512 20 11.9828 19.8046 11.5925 19.4138C11.2022 19.0231 11.007 18.5541 11.007 18.007V13.0129C11.007 12.4502 11.2022 11.9734 11.5925 11.5826C11.9828 11.1919 12.4512 10.9965 12.9977 10.9965H17.9859C18.548 10.9965 19.0242 11.1919 19.4145 11.5826C19.8048 11.9734 20 12.4502 20 13.0129V18.007C20 18.5541 19.8048 19.0231 19.4145 19.4138C19.0242 19.8046 18.548 20 17.9859 20ZM17.9859 7.01055V1.99297H12.9977V7.01055H17.9859ZM17.9859 9.00352H12.9977C12.4512 9.00352 11.9828 8.80813 11.5925 8.41735C11.2022 8.02657 11.007 7.55764 11.007 7.01055V1.99297C11.007 1.44588 11.2022 0.976944 11.5925 0.586166C11.9828 0.195389 12.4512 0 12.9977 0H17.9859C18.548 0 19.0242 0.195389 19.4145 0.586166C19.8048 0.976944 20 1.44588 20 1.99297V7.01055C20 7.55764 19.8048 8.02657 19.4145 8.41735C19.0242 8.80813 18.548 9.00352 17.9859 9.00352ZM7.00234 7.01055V1.99297H2.01405V7.01055H7.00234ZM7.00234 9.00352H2.01405C1.45199 9.00352 0.9758 8.80813 0.58548 8.41735C0.19516 8.02657 0 7.55764 0 7.01055V1.99297C0 1.44588 0.19516 0.976944 0.58548 0.586166C0.9758 0.195389 1.45199 0 2.01405 0H7.00234C7.54879 0 8.01717 0.195389 8.40749 0.586166C8.79781 0.976944 8.99297 1.44588 8.99297 1.99297V7.01055C8.99297 7.55764 8.79781 8.02657 8.40749 8.41735C8.01717 8.80813 7.54879 9.00352 7.00234 9.00352Z" fill="currentColor"/>
</svg>
