<svg xmlns="http://www.w3.org/2000/svg" xmlns:xlink="http://www.w3.org/1999/xlink" id="body_1" width="16" height="12" viewBox="0 0 1024 768"><g transform="matrix(1.9961014 0 0 1.9961014 -0 42.666668)"><g><path d="M0 0L513 0L513 341.3L0 341.3L0 0z" stroke="none" fill="#FFFFFF" fill-rule="nonzero" /><path d="M311.7 230L513 341.3L513 309.8L369.3 230L311.69998 230L311.7 230zM200.3 111.3L0 0L0 31.5L143.7 111.3L200.29999 111.3z" stroke="none" fill="#FFFFFF" fill-rule="nonzero" /></g><g><path d="M393.8 230L513 295.7L513 230L393.8 230zM311.69998 230L513 341.3L513 309.8L369.3 230L311.69998 230zM458.59998 341.3L311.59998 259.59998L311.59998 341.3L458.59998 341.3zM90.3 230L0 280.2L0 230L90.3 230zM200.3 244.2L200.3 341.4L25.5 341.4L200.3 244.2zM118.2 111.3L0 45.6L0 111.299995L118.2 111.299995zM200.29999 111.3L0 0L0 31.5L143.7 111.3L200.29999 111.3zM53.4 0L200.4 81.7L200.4 0L53.399994 0zM421.7 111.3L513 61.1L513 111.3L421.7 111.3zM311.7 97.100006L311.7 0L486.6 0L311.7 97.1z" stroke="none" fill="#0052B4" fill-rule="nonzero" /></g><g><path d="M288 0L224 0L224 138.7L0 138.7L0 202.7L224 202.7L224 341.4L288 341.4L288 202.7L512 202.7L512 138.7L288 138.7L288 0z" stroke="none" fill="#D80027" fill-rule="nonzero" /><path d="M311.7 230L513 341.3L513 309.8L369.3 230L311.69998 230L311.7 230zM143.7 230L0 309.9L0 341.4L200.3 230L143.70001 230zM200.3 111.3L0 0L0 31.5L143.7 111.3L200.29999 111.3zM368.3 111.3L513 31.5L513 0L311.7 111.3L368.30002 111.3z" stroke="none" fill="#D80027" fill-rule="nonzero" /></g></g></svg>
