<svg width="18" height="16" viewBox="0 0 18 16" fill="none" xmlns="http://www.w3.org/2000/svg">
<path d="M15.5437 0.631401H2.45629C1.77825 0.631401 1.19936 0.871273 0.719616 1.35102C0.239872 1.83076 0 2.40965 0 3.08769V12.9129C0 13.5909 0.239872 14.1698 0.719616 14.6495C1.19936 15.1293 1.77825 15.3691 2.45629 15.3691H15.5437C16.2217 15.3691 16.8006 15.1293 17.2804 14.6495C17.7601 14.1698 18 13.5909 18 12.9129V3.08769C18 2.40965 17.7601 1.83076 17.2804 1.35102C16.8006 0.871273 16.2217 0.631401 15.5437 0.631401ZM2.45629 2.28172H15.5437C15.71 2.28172 15.8571 2.3233 15.9851 2.40645C16.113 2.48961 16.209 2.59515 16.2729 2.72309V2.74228L9 7.82756L1.72708 2.74228C1.79104 2.60155 1.88699 2.48961 2.01493 2.40645C2.14286 2.3233 2.28998 2.28172 2.45629 2.28172ZM15.5437 13.738H2.45629C2.22601 13.738 2.03092 13.6581 1.871 13.4981C1.71109 13.3382 1.63113 13.1431 1.63113 12.9129V4.66125L8.53945 9.49707C8.60341 9.54824 8.67377 9.58662 8.75053 9.61221C8.82729 9.6378 8.91045 9.65059 9 9.65059C9.08955 9.65059 9.17271 9.6378 9.24947 9.61221C9.32623 9.58662 9.40299 9.54824 9.47974 9.49707H9.46055L16.3689 4.66125V12.9129C16.3689 13.1431 16.2889 13.3382 16.129 13.4981C15.9691 13.6581 15.774 13.738 15.5437 13.738Z" fill="white"/>
</svg>
