<svg width="24" height="24" viewBox="0 0 24 24" fill="none" xmlns="http://www.w3.org/2000/svg">
<path d="M18.9375 22.2773C18.9062 22.2773 18.8711 22.2734 18.832 22.2656C18.793 22.2578 18.75 22.2539 18.7031 22.2539C17.9219 22.1602 17.1641 22.0273 16.4297 21.8555C15.6953 21.6836 14.9805 21.4727 14.2852 21.2227C13.5898 20.9727 12.9141 20.6836 12.2578 20.3555C11.6016 20.0273 10.9688 19.668 10.3594 19.2773L10.4297 19.3242C9.85156 18.9492 9.29688 18.5508 8.76562 18.1289C8.25 17.6914 7.75391 17.2383 7.27734 16.7695C6.80078 16.3008 6.35156 15.8086 5.92969 15.293C5.50781 14.7617 5.11719 14.2148 4.75781 13.6523L4.71094 13.582C4.32031 13.0039 3.96875 12.3867 3.65625 11.7305C3.32812 11.0898 3.03906 10.4258 2.78906 9.73828C2.53906 9.05078 2.32812 8.34766 2.15625 7.62891C2 6.89453 1.875 6.15234 1.78125 5.40234V5.30859C1.78125 5.26172 1.77734 5.21875 1.76953 5.17969C1.76172 5.14062 1.75781 5.09766 1.75781 5.05078C1.75781 4.31641 2.00391 3.67969 2.49609 3.14062C2.98828 2.60156 3.59375 2.30078 4.3125 2.23828C4.35938 2.23828 4.40234 2.23828 4.44141 2.23828C4.48047 2.23828 4.52344 2.23828 4.57031 2.23828H7.3125C8.03125 2.23828 8.65234 2.47266 9.17578 2.94141C9.69922 3.41016 10.0078 3.98828 10.1016 4.67578V4.69922C10.1641 5.13672 10.2461 5.55469 10.3477 5.95312C10.4492 6.35156 10.5703 6.73828 10.7109 7.11328C10.7578 7.23828 10.793 7.375 10.8164 7.52344C10.8398 7.67188 10.8516 7.82422 10.8516 7.98047C10.8516 8.35547 10.7773 8.71484 10.6289 9.05859C10.4805 9.40234 10.2812 9.69922 10.0312 9.94922L9.44531 10.5352C9.96094 11.3477 10.5547 12.0898 11.2266 12.7617C11.8984 13.4336 12.625 14.0195 13.4062 14.5195L13.4531 14.5664L14.0391 13.957C14.3047 13.707 14.6055 13.5078 14.9414 13.3594C15.2773 13.2109 15.6406 13.1367 16.0312 13.1367C16.2031 13.1367 16.375 13.1523 16.5469 13.1836C16.7188 13.2148 16.8828 13.2617 17.0391 13.3242H17.0156C17.3438 13.4492 17.7031 13.5625 18.0938 13.6641C18.4844 13.7656 18.8828 13.8477 19.2891 13.9102H19.3359C20.0234 14.0039 20.6016 14.3125 21.0703 14.8359C21.5391 15.3594 21.7734 15.9805 21.7734 16.6992C21.7734 16.6992 21.7734 16.7031 21.7734 16.7109C21.7734 16.7188 21.7734 16.7305 21.7734 16.7461V19.4414C21.7734 19.4414 21.7734 19.4492 21.7734 19.4648C21.7734 20.2305 21.5 20.8867 20.9531 21.4336C20.4062 21.9805 19.7422 22.2617 18.9609 22.2773H18.9375ZM7.3125 4.23047H4.57031C4.44531 4.23047 4.33203 4.25781 4.23047 4.3125C4.12891 4.36719 4.03906 4.43359 3.96094 4.51172C3.89844 4.58984 3.85156 4.67188 3.82031 4.75781C3.78906 4.84375 3.77344 4.93359 3.77344 5.02734C3.77344 5.04297 3.77344 5.05859 3.77344 5.07422C3.77344 5.08984 3.77344 5.10547 3.77344 5.12109C3.85156 5.80859 3.96875 6.48047 4.125 7.13672C4.26562 7.80859 4.44922 8.45312 4.67578 9.07031C4.90234 9.6875 5.16406 10.293 5.46094 10.8867C5.75781 11.4648 6.07812 12.0273 6.42188 12.5742L6.39844 12.5039C7.05469 13.5508 7.80859 14.5 8.66016 15.3516C9.51172 16.2031 10.4453 16.9492 11.4609 17.5898L11.5078 17.6367C12.0391 17.9805 12.5938 18.293 13.1719 18.5742C13.7344 18.8711 14.3242 19.1289 14.9414 19.3477C15.5586 19.5664 16.1875 19.7539 16.8281 19.9102C17.4844 20.0664 18.1484 20.1836 18.8203 20.2617H18.8906C18.9062 20.2617 18.918 20.2617 18.9258 20.2617C18.9336 20.2617 18.9375 20.2617 18.9375 20.2617C19.1719 20.2617 19.3672 20.1836 19.5234 20.0273C19.6797 19.8711 19.7578 19.6758 19.7578 19.4414V16.6992C19.7578 16.4961 19.6914 16.3164 19.5586 16.1602C19.4258 16.0039 19.2656 15.9102 19.0781 15.8789C18.5625 15.8164 18.0703 15.7227 17.6016 15.5977C17.1328 15.4727 16.6719 15.332 16.2188 15.1758L16.3125 15.1992C16.2656 15.1836 16.2188 15.1719 16.1719 15.1641C16.125 15.1562 16.0781 15.1523 16.0312 15.1523C15.9219 15.1523 15.8164 15.1719 15.7148 15.2109C15.6133 15.25 15.5312 15.3086 15.4688 15.3867L14.3203 16.5352C14.2266 16.6133 14.1172 16.6797 13.9922 16.7344C13.8672 16.7891 13.7422 16.8164 13.6172 16.8164C13.5234 16.8164 13.4336 16.8047 13.3477 16.7812C13.2617 16.7578 13.1797 16.7227 13.1016 16.6758V16.6992C12.4922 16.3398 11.9141 15.9492 11.3672 15.5273C10.8203 15.1055 10.3047 14.6562 9.82031 14.1797C9.33594 13.7031 8.89062 13.1914 8.48438 12.6445C8.0625 12.1133 7.67969 11.5508 7.33594 10.957L7.3125 10.8867C7.26562 10.8086 7.23047 10.7305 7.20703 10.6523C7.18359 10.5742 7.17188 10.4883 7.17188 10.3945C7.17188 10.2539 7.19922 10.1211 7.25391 9.99609C7.30859 9.87109 7.38281 9.76953 7.47656 9.69141L8.625 8.54297C8.6875 8.46484 8.74219 8.375 8.78906 8.27344C8.83594 8.17188 8.85938 8.06641 8.85938 7.95703C8.85938 7.92578 8.85547 7.88672 8.84766 7.83984C8.83984 7.79297 8.82812 7.75391 8.8125 7.72266L8.78906 7.62891C8.64844 7.23828 8.51953 6.82422 8.40234 6.38672C8.28516 5.94922 8.19531 5.49609 8.13281 5.02734L8.10938 4.93359C8.07812 4.73047 7.98828 4.5625 7.83984 4.42969C7.69141 4.29688 7.51562 4.23047 7.3125 4.23047ZM17.625 10.957C17.375 10.957 17.1602 10.8789 16.9805 10.7227C16.8008 10.5664 16.6875 10.3711 16.6406 10.1367C16.5 9.43359 16.1758 8.82812 15.668 8.32031C15.1602 7.8125 14.5547 7.48828 13.8516 7.34766H13.8281C13.6094 7.30078 13.4219 7.18359 13.2656 6.99609C13.1094 6.80859 13.0312 6.59766 13.0312 6.36328C13.0312 6.08203 13.1289 5.84375 13.3242 5.64844C13.5195 5.45312 13.7578 5.35547 14.0391 5.35547C14.0703 5.35547 14.1016 5.35938 14.1328 5.36719C14.1641 5.375 14.1953 5.37891 14.2266 5.37891C15.3359 5.59766 16.2852 6.10156 17.0742 6.89062C17.8633 7.67969 18.3672 8.62109 18.5859 9.71484V9.76172C18.6016 9.79297 18.6094 9.82422 18.6094 9.85547C18.6094 9.88672 18.6094 9.91797 18.6094 9.94922C18.6094 10.2305 18.5117 10.4688 18.3164 10.6641C18.1211 10.8594 17.8906 10.957 17.625 10.957ZM21.2578 10.9336C20.9922 10.9336 20.7656 10.8477 20.5781 10.6758C20.3906 10.5039 20.2812 10.293 20.25 10.043C20.1562 9.21484 19.9297 8.43359 19.5703 7.69922C19.2109 6.98047 18.7539 6.33984 18.1992 5.77734C17.6445 5.21484 17.0078 4.75391 16.2891 4.39453C15.5547 4.03516 14.7734 3.81641 13.9453 3.73828L13.9219 3.71484C13.6719 3.69922 13.4609 3.59375 13.2891 3.39844C13.1172 3.20312 13.0312 2.98047 13.0312 2.73047C13.0312 2.71484 13.0312 2.69531 13.0312 2.67188C13.0312 2.64844 13.0312 2.62891 13.0312 2.61328C13.0625 2.36328 13.1758 2.15234 13.3711 1.98047C13.5664 1.80859 13.7891 1.72266 14.0391 1.72266C14.0547 1.72266 14.0703 1.72656 14.0859 1.73438C14.1016 1.74219 14.125 1.74609 14.1562 1.74609H14.1328C15.2109 1.85547 16.2109 2.13672 17.1328 2.58984C18.0703 3.05859 18.8984 3.64844 19.6172 4.35938C20.3359 5.07031 20.9219 5.88672 21.375 6.80859C21.8281 7.73047 22.1172 8.72266 22.2422 9.78516V9.83203C22.2422 9.84766 22.2422 9.86328 22.2422 9.87891C22.2422 9.89453 22.2422 9.91797 22.2422 9.94922C22.2422 10.1992 22.1562 10.418 21.9844 10.6055C21.8125 10.793 21.6016 10.9023 21.3516 10.9336C21.3359 10.9336 21.3203 10.9336 21.3047 10.9336C21.2891 10.9336 21.2734 10.9336 21.2578 10.9336C21.2578 10.9336 21.25 10.9336 21.2344 10.9336H21.2578Z" fill="white"/>
</svg>
