<svg width="14" height="14" viewBox="0 0 14 14" fill="none" xmlns="http://www.w3.org/2000/svg">
<path d="M8.61025 8.61586C8.61025 8.61586 8.72178 8.50425 8.94483 8.28104C9.16789 8.05783 9.27942 7.63074 9.27942 6.99979C9.27942 6.36884 9.05636 5.83015 8.61025 5.38372C8.16414 4.93729 7.62583 4.71408 6.99533 4.71408C6.36483 4.71408 5.82652 4.93729 5.38041 5.38372C4.9343 5.83015 4.71124 6.36884 4.71124 6.99979C4.71124 7.63074 4.9343 8.16943 5.38041 8.61586C5.82652 9.06229 6.36483 9.2855 6.99533 9.2855C7.62583 9.2855 8.16414 9.06229 8.61025 8.61586ZM9.48463 4.50872C9.48463 4.50872 9.65564 4.67985 9.99766 5.02211C10.3397 5.36437 10.5107 6.0236 10.5107 6.99979C10.5107 7.97598 10.1687 8.80634 9.48463 9.49086C8.80059 10.1754 7.97083 10.5176 6.99533 10.5176C6.01983 10.5176 5.19007 10.1754 4.50603 9.49086C3.82199 8.80634 3.47998 7.97598 3.47998 6.99979C3.47998 6.0236 3.82199 5.19324 4.50603 4.50872C5.19007 3.82419 6.01983 3.48193 6.99533 3.48193C7.97083 3.48193 8.80059 3.82419 9.48463 4.50872ZM11.2334 2.75872C11.2334 2.75872 11.2735 2.7989 11.3538 2.87925C11.4341 2.95961 11.4743 3.11289 11.4743 3.33908C11.4743 3.56527 11.394 3.75872 11.2334 3.91943C11.0728 4.08015 10.8795 4.1605 10.6534 4.1605C10.4274 4.1605 10.2341 4.08015 10.0735 3.91943C9.91289 3.75872 9.83259 3.56527 9.83259 3.33908C9.83259 3.11289 9.91289 2.91943 10.0735 2.75872C10.2341 2.598 10.4274 2.51765 10.6534 2.51765C10.8795 2.51765 11.0728 2.598 11.2334 2.75872ZM7.67788 1.37033C7.67788 1.37033 7.57453 1.37107 7.36783 1.37256C7.16113 1.37405 7.03697 1.37479 6.99533 1.37479C6.95369 1.37479 6.72618 1.3733 6.31278 1.37033C5.89938 1.36735 5.58562 1.36735 5.37149 1.37033C5.15735 1.3733 4.87035 1.38223 4.51049 1.39711C4.15063 1.41199 3.8443 1.44175 3.5915 1.4864C3.33871 1.53104 3.12606 1.5861 2.95356 1.65158C2.65616 1.77062 2.39444 1.94324 2.16841 2.16943C1.94238 2.39562 1.76988 2.65753 1.65092 2.95515C1.58549 3.12777 1.53047 3.34056 1.48586 3.59354C1.44125 3.84652 1.41151 4.15306 1.39664 4.51318C1.38177 4.8733 1.37285 5.1605 1.36987 5.37479C1.3669 5.58908 1.3669 5.90306 1.36987 6.31675C1.37285 6.73045 1.37433 6.95812 1.37433 6.99979C1.37433 7.04146 1.37285 7.26914 1.36987 7.68283C1.3669 8.09652 1.3669 8.4105 1.36987 8.62479C1.37285 8.83908 1.38177 9.12628 1.39664 9.4864C1.41151 9.84652 1.44125 10.1531 1.48586 10.406C1.53047 10.659 1.58549 10.8718 1.65092 11.0444C1.76988 11.3421 1.94238 11.604 2.16841 11.8301C2.39444 12.0563 2.65616 12.229 2.95356 12.348C3.12606 12.4135 3.33871 12.4685 3.5915 12.5132C3.8443 12.5578 4.15063 12.5876 4.51049 12.6025C4.87035 12.6174 5.15735 12.6263 5.37149 12.6293C5.58562 12.6322 5.89938 12.6322 6.31278 12.6293C6.72618 12.6263 6.95369 12.6248 6.99533 12.6248C7.03697 12.6248 7.26448 12.6263 7.67788 12.6293C8.09128 12.6322 8.40504 12.6322 8.61917 12.6293C8.83331 12.6263 9.1203 12.6174 9.48017 12.6025C9.84003 12.5876 10.1464 12.5578 10.3992 12.5132C10.652 12.4685 10.8646 12.4135 11.0371 12.348C11.3345 12.229 11.5962 12.0563 11.8222 11.8301C12.0483 11.604 12.2208 11.3421 12.3397 11.0444C12.4052 10.8718 12.4602 10.659 12.5048 10.406C12.5494 10.1531 12.5792 9.84652 12.594 9.4864C12.6089 9.12628 12.6178 8.83908 12.6208 8.62479C12.6238 8.4105 12.6238 8.09652 12.6208 7.68283C12.6178 7.26914 12.6163 7.04146 12.6163 6.99979C12.6163 6.95812 12.6178 6.73045 12.6208 6.31675C12.6238 5.90306 12.6238 5.58908 12.6208 5.37479C12.6178 5.1605 12.6089 4.8733 12.594 4.51318C12.5792 4.15306 12.5494 3.84652 12.5048 3.59354C12.4602 3.34056 12.4052 3.12777 12.3397 2.95515C12.2208 2.65753 12.0483 2.39562 11.8222 2.16943C11.5962 1.94324 11.3345 1.77062 11.0371 1.65158C10.8646 1.5861 10.652 1.53104 10.3992 1.4864C10.1464 1.44175 9.84003 1.41199 9.48017 1.39711C9.1203 1.38223 8.83331 1.3733 8.61917 1.37033C8.40504 1.36735 8.09128 1.36735 7.67788 1.37033ZM13.803 4.16943C13.8327 4.69324 13.8476 5.63669 13.8476 6.99979C13.8476 8.36289 13.8327 9.30634 13.803 9.83015C13.7435 11.0682 13.3747 12.0266 12.6966 12.7051C12.0185 13.3837 11.0609 13.7528 9.82367 13.8123C9.30024 13.8421 8.35745 13.8569 6.99533 13.8569C5.6332 13.8569 4.69042 13.8421 4.16699 13.8123C2.92977 13.7528 1.97212 13.3837 1.29403 12.7051C0.615944 12.0266 0.247159 11.0682 0.187677 9.83015C0.157937 9.30634 0.143066 8.36289 0.143066 6.99979C0.143066 5.63669 0.157937 4.69324 0.187677 4.16943C0.247159 2.93134 0.615944 1.973 1.29403 1.29443C1.97212 0.615862 2.92977 0.246814 4.16699 0.18729C4.69042 0.157528 5.6332 0.142647 6.99533 0.142647C8.35745 0.142647 9.30024 0.157528 9.82367 0.18729C11.0609 0.246814 12.0185 0.615862 12.6966 1.29443C13.3747 1.973 13.7435 2.93134 13.803 4.16943Z" fill="white"/>
</svg>
