<svg width="14" height="14" viewBox="0 0 14 14" fill="none" xmlns="http://www.w3.org/2000/svg">
<path d="M3.25692 4.5805V13.4287H0.312589V4.5805H3.25692ZM3.44429 1.84835C3.45023 2.28288 3.30004 2.64597 2.99371 2.93764C2.68739 3.22931 2.2844 3.37514 1.78475 3.37514H1.76691C1.27916 3.37514 0.886585 3.22931 0.589177 2.93764C0.29177 2.64597 0.143066 2.28288 0.143066 1.84835C0.143066 1.40788 0.296231 1.04329 0.602561 0.754603C0.90889 0.465913 1.3089 0.321568 1.8026 0.321568C2.29629 0.321568 2.69185 0.465913 2.98925 0.754603C3.28666 1.04329 3.43834 1.40788 3.44429 1.84835ZM13.8476 8.35728V13.4287H10.9122V8.69657C10.9122 8.07157 10.7917 7.58198 10.5508 7.22782C10.3099 6.87365 9.93371 6.69657 9.42217 6.69657C9.04744 6.69657 8.73368 6.79925 8.48088 7.0046C8.22808 7.20996 8.03923 7.46443 7.91432 7.768C7.84889 7.94657 7.81617 8.18764 7.81617 8.49121V13.4287H4.88076C4.89266 11.0537 4.89861 9.12812 4.89861 7.65193C4.89861 6.17573 4.89563 5.29478 4.88969 5.00907L4.88076 4.5805H7.81617V5.86621H7.79833C7.91729 5.67573 8.03923 5.50907 8.16414 5.36621C8.28905 5.22335 8.45709 5.06859 8.66825 4.90193C8.8794 4.73526 9.13815 4.60579 9.44448 4.51353C9.75081 4.42127 10.0913 4.37514 10.4661 4.37514C11.4832 4.37514 12.3011 4.71294 12.9197 5.38853C13.5383 6.06413 13.8476 7.05371 13.8476 8.35728Z" fill="white"/>
</svg>
