<svg width="18" height="15" viewBox="0 0 18 15" fill="none" xmlns="http://www.w3.org/2000/svg">
<path d="M16.875 0.5H6.375C6.09375 0.5 5.85547 0.597656 5.66016 0.792969C5.46484 0.988281 5.36719 1.22656 5.36719 1.50781C5.36719 1.77344 5.46484 2.00391 5.66016 2.19922C5.85547 2.39453 6.09375 2.49219 6.375 2.49219H16.875C17.1406 2.49219 17.3711 2.39453 17.5664 2.19922C17.7617 2.00391 17.8594 1.77344 17.8594 1.50781C17.8594 1.22656 17.7617 0.988281 17.5664 0.792969C17.3711 0.597656 17.1406 0.5 16.875 0.5ZM16.875 6.5H6.375C6.09375 6.5 5.85547 6.59766 5.66016 6.79297C5.46484 6.98828 5.36719 7.22656 5.36719 7.50781C5.36719 7.77344 5.46484 8.00391 5.66016 8.19922C5.85547 8.39453 6.09375 8.49219 6.375 8.49219H16.875C17.1406 8.49219 17.3711 8.39453 17.5664 8.19922C17.7617 8.00391 17.8594 7.77344 17.8594 7.50781C17.8594 7.22656 17.7617 6.98828 17.5664 6.79297C17.3711 6.59766 17.1406 6.5 16.875 6.5ZM16.875 12.5H6.375C6.09375 12.5 5.85547 12.5977 5.66016 12.793C5.46484 12.9883 5.36719 13.2266 5.36719 13.5078C5.36719 13.7734 5.46484 14.0039 5.66016 14.1992C5.85547 14.3945 6.09375 14.4922 6.375 14.4922H16.875C17.1406 14.4922 17.3711 14.3945 17.5664 14.1992C17.7617 14.0039 17.8594 13.7734 17.8594 13.5078C17.8594 13.2266 17.7617 12.9883 17.5664 12.793C17.3711 12.5977 17.1406 12.5 16.875 12.5ZM1.5 12.0078C1.90625 12.0078 2.25781 12.1523 2.55469 12.4414C2.85156 12.7305 3 13.0859 3 13.5078C3 13.9141 2.85156 14.2656 2.55469 14.5625C2.25781 14.8594 1.90625 15.0078 1.5 15.0078C1.07812 15.0078 0.722656 14.8594 0.433594 14.5625C0.144531 14.2656 0 13.9141 0 13.5078C0 13.0859 0.144531 12.7305 0.433594 12.4414C0.722656 12.1523 1.07812 12.0078 1.5 12.0078ZM1.5 9.00781C1.07812 9.00781 0.722656 8.85938 0.433594 8.5625C0.144531 8.26562 0 7.91406 0 7.50781C0 7.08594 0.144531 6.73047 0.433594 6.44141C0.722656 6.15234 1.07812 6.00781 1.5 6.00781C1.90625 6.00781 2.25781 6.15234 2.55469 6.44141C2.85156 6.73047 3 7.08594 3 7.50781C3 7.91406 2.85156 8.26562 2.55469 8.5625C2.25781 8.85938 1.90625 9.00781 1.5 9.00781ZM1.5 3.00781C1.07812 3.00781 0.722656 2.85938 0.433594 2.5625C0.144531 2.26562 0 1.91406 0 1.50781C0 1.08594 0.144531 0.730469 0.433594 0.441406C0.722656 0.152344 1.07812 0.0078125 1.5 0.0078125C1.90625 0.0078125 2.25781 0.152344 2.55469 0.441406C2.85156 0.730469 3 1.08594 3 1.50781C3 1.91406 2.85156 2.26562 2.55469 2.5625C2.25781 2.85938 1.90625 3.00781 1.5 3.00781Z" fill="currentColor"/>
</svg>
