<svg width="16" height="18" viewBox="0 0 16 18" fill="none" xmlns="http://www.w3.org/2000/svg">
<path d="M4.94924 16.3024L4.94928 16.3023L4.95022 16.3038C5.30733 16.8593 5.77318 17.2755 6.34802 17.553C6.92398 17.831 7.52953 17.97 8.16498 17.97C8.80043 17.97 9.40598 17.831 9.98194 17.553C10.5568 17.2755 11.0226 16.8593 11.3797 16.3038L11.3797 16.3038L11.3807 16.3024C12.8202 14.3231 13.8991 12.6046 14.6181 11.1467C15.3373 9.68826 15.695 8.49318 15.695 7.56C15.695 6.20527 15.3564 4.95052 14.6791 3.79517C14.0017 2.6396 13.0854 1.72329 11.9298 1.04588C10.7745 0.36861 9.51971 0.0300007 8.16498 0.0300007C6.81025 0.0300007 5.5555 0.36861 4.40015 1.04588C3.24458 1.72329 2.32827 2.6396 1.65086 3.79517C0.973591 4.95052 0.63498 6.20527 0.63498 7.56C0.63498 8.49318 0.992638 9.68826 1.71189 11.1467C2.43086 12.6046 3.5098 14.3231 4.94924 16.3024ZM6.2222 15.4395L6.22211 15.4396L6.22053 15.4374C4.94003 13.6367 3.95913 12.0654 3.27823 10.7236C2.59779 9.38271 2.25498 8.32741 2.25498 7.56C2.25498 6.47495 2.51626 5.47974 3.039 4.57499C3.56158 3.67054 4.27522 2.94687 5.17955 2.40428C6.08435 1.86139 7.07971 1.59 8.16498 1.59C9.25025 1.59 10.2456 1.86139 11.1504 2.40428C12.0547 2.94687 12.7684 3.67054 13.291 4.57499C13.8137 5.47974 14.075 6.47495 14.075 7.56C14.075 8.32741 13.7322 9.38271 13.0517 10.7236C12.3708 12.0654 11.3899 13.6367 10.1094 15.4374L10.1095 15.4375L10.1078 15.4395C9.8652 15.7225 9.5722 15.9548 9.22902 16.1365C8.885 16.3186 8.53021 16.41 8.16498 16.41C7.79975 16.41 7.44496 16.3186 7.10094 16.1365C6.75776 15.9548 6.46476 15.7225 6.2222 15.4395ZM8.16498 4.53C7.33272 4.53 6.63042 4.81699 6.05619 5.39121C5.48197 5.96544 5.19498 6.66774 5.19498 7.5C5.19498 8.33226 5.48197 9.03456 6.05619 9.60879C6.63042 10.183 7.33272 10.47 8.16498 10.47C8.99724 10.47 9.69954 10.183 10.2738 9.60879C10.848 9.03456 11.135 8.33226 11.135 7.5C11.135 6.66774 10.848 5.96544 10.2738 5.39121C9.69954 4.81699 8.99724 4.53 8.16498 4.53ZM8.16498 9.03C7.7565 9.03 7.39901 8.87646 7.09377 8.57121C6.78852 8.26597 6.63498 7.90848 6.63498 7.5C6.63498 7.09152 6.78852 6.73403 7.09377 6.42879C7.39901 6.12354 7.7565 5.97 8.16498 5.97C8.57346 5.97 8.93095 6.12354 9.23619 6.42879C9.54144 6.73403 9.69498 7.09152 9.69498 7.5C9.69498 7.90848 9.54144 8.26597 9.23619 8.57121C8.93095 8.87646 8.57346 9.03 8.16498 9.03Z" fill="#111111" stroke="#111111" stroke-width="0.06"/>
</svg>
