<svg width="18" height="22" viewBox="0 0 18 22" fill="none" xmlns="http://www.w3.org/2000/svg">
<path fill-rule="evenodd" clip-rule="evenodd" d="M9.15991 21.7634L9.7811 21.221C15.0048 16.6598 17.6599 12.6771 17.6599 9.17627C17.6599 4.21856 13.7904 0.67627 9.15991 0.67627C4.52935 0.67627 0.659912 4.21856 0.659912 9.17627C0.659912 12.6771 3.31504 16.6598 8.53872 21.221L9.15991 21.7634ZM9.15991 19.2472C4.72727 15.2524 2.5488 11.8672 2.5488 9.17627C2.5488 5.30084 5.53713 2.56516 9.15991 2.56516C12.7827 2.56516 15.771 5.30084 15.771 9.17627C15.771 11.8672 13.5926 15.2524 9.15991 19.2472ZM9.15991 4.45405C11.7679 4.45405 13.8821 6.56825 13.8821 9.17627C13.8821 11.7843 11.7679 13.8985 9.15991 13.8985C6.5519 13.8985 4.43769 11.7843 4.43769 9.17627C4.43769 6.56825 6.5519 4.45405 9.15991 4.45405ZM6.32658 9.17627C6.32658 7.61146 7.59511 6.34294 9.15991 6.34294C10.7248 6.34294 11.9932 7.61146 11.9932 9.17627C11.9932 10.7411 10.7248 12.0096 9.15991 12.0096C7.59511 12.0096 6.32658 10.7411 6.32658 9.17627Z" fill="#E36756"/>
</svg>
