<svg width="18" height="17" viewBox="0 0 18 17" fill="none" xmlns="http://www.w3.org/2000/svg">
<path d="M17.0853 13.2933C17.28 13.4887 17.426 13.7272 17.5114 13.9895C17.5968 14.2518 17.6192 14.5305 17.5769 14.8031C17.5345 15.0757 17.4286 15.3344 17.2676 15.5584C17.1066 15.7825 16.8951 15.9654 16.6503 16.0925C15.2512 16.8403 13.6211 17.0314 12.087 16.6275C8.01531 15.6025 2.16281 9.74999 1.13781 5.67832C0.733918 4.1442 0.92503 2.51409 1.67281 1.11499C1.79989 0.870158 1.98285 0.658695 2.20686 0.497724C2.43086 0.336752 2.68963 0.230797 2.96221 0.188438C3.23478 0.146079 3.5135 0.168506 3.7758 0.253904C4.0381 0.339303 4.27659 0.485271 4.47198 0.679989L6.20948 2.41666C6.46004 2.6647 6.62959 2.98283 6.69579 3.32914C6.76199 3.67545 6.72173 4.03368 6.58031 4.35666C6.42557 4.71902 6.20584 5.05003 5.93198 5.33332C3.94531 7.31999 10.4461 13.8208 12.432 11.8333C12.7153 11.5585 13.0466 11.3379 13.4095 11.1825C13.7324 11.0408 14.0907 11.0005 14.4371 11.0667C14.7834 11.1329 15.1016 11.3026 15.3495 11.5533L17.0853 13.2933Z" fill="white"/>
</svg>
