<svg width="19" height="18" viewBox="0 0 19 18" fill="none" xmlns="http://www.w3.org/2000/svg">
<path d="M1.51047 13.3648L1.51688 13.3757L1.51355 13.3879L0.267263 17.9576L4.9569 16.711L4.96847 16.7079L4.97897 16.7137C6.29452 17.4312 7.70957 17.79 9.22461 17.79C10.8193 17.79 12.2941 17.3914 13.6494 16.5941C15.005 15.7967 16.0813 14.7204 16.8788 13.3648C17.676 12.0095 18.0746 10.5347 18.0746 8.94C18.0746 7.74377 17.8553 6.60762 17.4168 5.53132C16.9784 4.45509 16.3406 3.49844 15.5034 2.66121C14.6662 1.82399 13.6994 1.17618 12.603 0.717678C11.5066 0.259167 10.3805 0.0300007 9.22461 0.0300007C7.58974 0.0300007 6.09502 0.428679 4.73982 1.22586C3.38422 2.02327 2.30788 3.09961 1.51047 4.45521C0.713254 5.81047 0.314609 7.2952 0.314609 8.91C0.314609 10.5248 0.713254 12.0095 1.51047 13.3648ZM5.42944 15.3259L5.42917 15.3257L5.14021 15.1523L2.33261 15.9289L2.28125 15.9431L2.29574 15.8918L3.07221 13.1443L2.89907 12.8558C2.13625 11.6512 1.75461 10.3557 1.75461 8.97C1.75461 7.58498 2.08587 6.31976 2.74865 5.17497C3.41127 4.03043 4.31504 3.12666 5.45958 2.46404C6.6043 1.8013 7.85951 1.47 9.22461 1.47C10.1887 1.47 11.1326 1.66083 12.0561 2.04227C12.9797 2.42377 13.793 2.96598 14.4958 3.66879C15.1986 4.3716 15.7309 5.175 16.0925 6.07886C16.4539 6.98251 16.6346 7.93631 16.6346 8.94C16.6346 10.2653 16.3032 11.5005 15.6406 12.645C14.9779 13.7896 14.0742 14.6933 12.9296 15.356C11.7851 16.0186 10.5499 16.35 9.22461 16.35C7.85934 16.35 6.59409 16.0086 5.42944 15.3259ZM13.2312 10.8268L13.2312 10.8269L13.2302 10.8263C12.8303 10.6064 12.5107 10.4366 12.2712 10.3168C12.0305 10.1965 11.8735 10.1282 11.7973 10.1091C11.6378 10.0692 11.5207 10.05 11.4446 10.05C11.3845 10.05 11.3318 10.0934 11.2931 10.2095L11.2964 10.2106L11.2858 10.2212C11.1271 10.3799 10.8881 10.6586 10.5683 11.0584C10.5048 11.143 10.4281 11.1935 10.3383 11.2048C10.2501 11.2158 10.1542 11.1882 10.052 11.1274L9.87512 11.0685L9.87506 11.0686L9.87192 11.0672C9.26946 10.786 8.72706 10.4345 8.24485 10.0126C7.76229 9.59033 7.34034 9.07785 6.97888 8.47544L6.97826 8.47581L6.97615 8.46949C6.93581 8.34848 6.92287 8.25035 6.94615 8.18051C6.96828 8.11413 7.02189 8.04046 7.10243 7.95975L7.40156 7.60079L7.40147 7.60072L7.4034 7.59879C7.48002 7.52216 7.55712 7.4263 7.63461 7.31089V7.26V7.25092L7.63965 7.24336C7.71217 7.13458 7.71432 7.0065 7.63778 6.85342L7.63773 6.85344L7.63703 6.85182L6.91703 5.17182L6.91668 5.17197L6.9155 5.16728C6.87597 5.00914 6.81882 4.92065 6.75119 4.88683C6.67486 4.84867 6.59943 4.83 6.52461 4.83H6.04461C5.8144 4.83 5.62278 4.92531 5.46804 5.11874L5.45903 5.13H5.44461H5.39869C5.20469 5.36433 5.06971 5.57802 4.99246 5.77114L4.99269 5.77123L4.99083 5.77457C4.79348 6.12981 4.69461 6.52474 4.69461 6.96C4.69461 7.3938 4.8327 7.8891 5.11144 8.44658L5.11149 8.44656L5.11218 8.44818C5.23084 8.72504 5.389 8.98221 5.58678 9.21975L5.64582 9.27879L5.64617 9.27844L5.64928 9.28292C6.00827 9.80147 6.40712 10.2801 6.84582 10.7188L6.84631 10.7193C7.68418 11.5971 8.5408 12.2142 9.41597 12.5722L9.41597 12.5722L9.41679 12.5726C9.77563 12.7321 10.1746 12.8817 10.6137 13.0214C11.0487 13.1598 11.524 13.1897 12.04 13.1103L12.04 13.11H12.0446C12.2761 13.11 12.5602 13.0036 12.8983 12.7848C13.2358 12.5664 13.4393 12.3412 13.5161 12.1105C13.5956 11.8721 13.645 11.6543 13.6648 11.457C13.6747 11.3575 13.6796 11.2761 13.6796 11.2125C13.6796 11.1481 13.6745 11.1046 13.6661 11.0795C13.6597 11.0601 13.6353 11.0324 13.581 10.9978C13.5283 10.9642 13.4527 10.9275 13.3535 10.8879L13.3534 10.888L13.3512 10.8868L13.2312 10.8268Z" fill="#111111" stroke="#111111" stroke-width="0.06"/>
</svg>
