<svg width="17" height="17" viewBox="0 0 17 17" fill="none" xmlns="http://www.w3.org/2000/svg">
<path fill-rule="evenodd" clip-rule="evenodd" d="M7.63811 5.16126C8.05751 4.59604 8.20792 4.00035 7.73357 3.47454C6.66909 1.98504 5.9532 1.06393 5.50415 0.620344C4.65046 -0.222964 3.24612 -0.108893 2.50676 0.619623C2.10964 1.01092 1.9752 1.14529 1.56746 1.55945C-0.703789 3.83191 0.681334 8.63578 4.36349 12.3216C8.0448 16.0065 12.8483 17.3924 15.1243 15.1151C15.5005 14.7524 15.8191 14.4337 16.0703 14.1681C16.7949 13.4023 16.9049 12.0598 16.0656 11.1878C15.6353 10.7406 14.7569 10.0593 13.2047 8.94907C12.7294 8.52399 12.1657 8.61611 11.6489 8.95514C11.4004 9.11818 11.2194 9.28316 10.8778 9.6251L10.2576 10.2458C10.1759 10.3274 9.0665 9.77187 7.98959 8.69399C6.91213 7.61544 6.35695 6.50601 6.43826 6.42469L7.05898 5.80363C7.16735 5.69515 7.21917 5.64263 7.28562 5.5728C7.42405 5.4273 7.53867 5.29526 7.63811 5.16126ZM11.4017 11.3906L12.0222 10.7699C12.2102 10.5816 12.332 10.466 12.4311 10.3861C13.7909 11.3626 14.5783 11.9766 14.9 12.3108C15.0931 12.5115 15.0631 12.8776 14.8952 13.0551C14.6629 13.3006 14.361 13.6026 13.9906 13.9599C12.5189 15.4322 8.64142 14.3135 5.50794 11.177C2.37348 8.03945 1.25532 4.1614 2.71595 2.69997C3.12206 2.28751 3.25073 2.15891 3.64218 1.7732C3.78894 1.62858 4.18873 1.5961 4.36728 1.77248C4.71301 2.11399 5.3543 2.93513 6.2977 4.24927C6.24886 4.3099 6.18786 4.37842 6.11364 4.45643C6.05915 4.5137 6.01376 4.55971 5.91453 4.65904L5.29441 5.27949C4.23948 6.33433 5.1379 8.12959 6.84515 9.83857C8.55124 11.5463 10.3472 12.4457 11.4017 11.3906ZM9.90347 0.0867915C13.4033 0.511013 16.1784 3.2861 16.6026 6.78593L15.0035 7.05246C14.6947 4.2334 12.4561 1.99473 9.63697 1.68596L9.90347 0.0867915ZM9.37032 3.2865C11.5087 3.47776 13.2118 5.18083 13.403 7.31921L11.7987 7.58659C11.7306 6.12873 10.5608 4.95887 9.10293 4.89079L9.37032 3.2865Z" fill="#E36756"/>
</svg>
