<svg width="28" height="21" viewBox="0 0 28 21" fill="none" xmlns="http://www.w3.org/2000/svg">
<path d="M8.00005 0.583333C8.17514 0.452011 8.37439 0.356463 8.58641 0.302144C8.79843 0.247825 9.01908 0.235798 9.23575 0.266751C9.45242 0.297704 9.66087 0.37103 9.8492 0.482543C10.0375 0.594055 10.2021 0.741571 10.3334 0.916667C10.4647 1.09176 10.5603 1.29101 10.6146 1.50303C10.6689 1.71505 10.6809 1.9357 10.65 2.15237C10.619 2.36904 10.5457 2.57749 10.4342 2.76582C10.3227 2.95415 10.1751 3.11868 10 3.25C7.39338 5.205 5.90005 7.10667 5.04505 8.76667C6.219 8.46447 7.45793 8.53552 8.58964 8.96992C9.72136 9.40433 10.6896 10.1805 11.3599 11.1906C12.0301 12.2007 12.369 13.3945 12.3295 14.6061C12.2899 15.8176 11.8739 16.9868 11.1393 17.951C10.4046 18.9153 9.38783 19.6267 8.23021 19.9864C7.07259 20.3461 5.83166 20.3363 4.6799 19.9582C3.52815 19.5801 2.52278 18.8526 1.80356 17.8768C1.08433 16.901 0.686974 15.7254 0.666714 14.5133C0.453151 12.4665 0.743831 10.3986 1.51338 8.49C2.50838 5.98 4.45338 3.24333 8.00005 0.583333ZM23 0.583333C23.1751 0.452011 23.3744 0.356463 23.5864 0.302144C23.7984 0.247825 24.0191 0.235798 24.2358 0.266751C24.4524 0.297704 24.6609 0.37103 24.8492 0.482543C25.0375 0.594055 25.2021 0.741571 25.3334 0.916667C25.4647 1.09176 25.5603 1.29101 25.6146 1.50303C25.6689 1.71505 25.6809 1.9357 25.65 2.15237C25.619 2.36904 25.5457 2.57749 25.4342 2.76582C25.3227 2.95415 25.1751 3.11868 25 3.25C22.3934 5.205 20.9 7.10667 20.045 8.76667C21.219 8.46447 22.4579 8.53552 23.5896 8.96992C24.7214 9.40433 25.6896 10.1805 26.3599 11.1906C27.0301 12.2007 27.369 13.3945 27.3295 14.6061C27.2899 15.8176 26.8739 16.9868 26.1393 17.951C25.4046 18.9153 24.3878 19.6267 23.2302 19.9864C22.0726 20.3461 20.8317 20.3363 19.6799 19.9582C18.5281 19.5801 17.5228 18.8526 16.8036 17.8768C16.0843 16.901 15.687 15.7254 15.6667 14.5133C15.4532 12.4665 15.7438 10.3986 16.5134 8.49C17.51 5.98 19.4534 3.24333 23 0.583333Z" fill="white"/>
</svg>
