<svg width="17" height="17" viewBox="0 0 17 17" fill="none" xmlns="http://www.w3.org/2000/svg">
<path d="M16.6029 15.38L12.6562 11.38C13.4029 10.4911 13.874 9.47778 14.0696 8.34C14.2651 7.20222 14.1762 6.09111 13.8029 5.00667C13.4296 3.92222 12.8073 2.98889 11.9362 2.20667C11.0651 1.42444 10.0784 0.908889 8.97622 0.66C7.874 0.41111 6.76289 0.437777 5.64289 0.74C4.52289 1.04222 3.554 1.60222 2.73622 2.42C1.91844 3.23778 1.35844 4.20667 1.05622 5.32667C0.753997 6.44667 0.72733 7.55778 0.976219 8.66C1.22511 9.76222 1.74066 10.7489 2.52289 11.62C3.30511 12.4911 4.23844 13.1133 5.32289 13.4867C6.40733 13.86 7.51844 13.9489 8.65622 13.7533C9.794 13.5578 10.8073 13.0867 11.6962 12.34L15.6962 16.2867C15.8029 16.4289 15.954 16.5 16.1496 16.5C16.3451 16.5 16.5051 16.4378 16.6296 16.3133C16.754 16.1889 16.8162 16.0289 16.8162 15.8333C16.8162 15.6378 16.7451 15.4867 16.6029 15.38ZM7.48289 12.5C6.52289 12.5 5.634 12.26 4.81622 11.78C3.99844 11.3 3.34955 10.6511 2.86955 9.83333C2.38955 9.01556 2.14955 8.12667 2.14955 7.16667C2.14955 6.20667 2.38955 5.31778 2.86955 4.5C3.34955 3.68222 3.99844 3.03333 4.81622 2.55333C5.634 2.07333 6.52289 1.83333 7.48289 1.83333C8.44289 1.83333 9.33177 2.07333 10.1496 2.55333C10.9673 3.03333 11.6162 3.68222 12.0962 4.5C12.5762 5.31778 12.8162 6.20667 12.8162 7.16667C12.8162 8.12667 12.5762 9.01556 12.0962 9.83333C11.6162 10.6511 10.9673 11.3 10.1496 11.78C9.33177 12.26 8.44289 12.5 7.48289 12.5Z" fill="#212B36"/>
</svg>
