<svg width="25" height="25" viewBox="0 0 25 25" fill="none" xmlns="http://www.w3.org/2000/svg">
<path d="M24.7631 23.6398L18.3086 17.2882C19.9988 15.4518 21.0374 13.0231 21.0374 10.3504C21.0365 4.63354 16.3275 -0.000366211 10.5183 -0.000366211C4.70919 -0.000366211 0.00012207 4.63354 0.00012207 10.3504C0.00012207 16.0672 4.70919 20.7011 10.5183 20.7011C13.0283 20.7011 15.3303 19.8329 17.1387 18.3896L23.6182 24.7661C23.9339 25.0772 24.4465 25.0772 24.7622 24.7661C25.0787 24.4552 25.0787 23.9503 24.763 23.6393L24.7631 23.6398ZM10.5182 19.1092C5.60289 19.1092 1.61848 15.188 1.61848 10.3508C1.61848 5.51355 5.60301 1.59234 10.5182 1.59234C15.4336 1.59234 19.418 5.51355 19.418 10.3508C19.418 15.188 15.4335 19.1092 10.5182 19.1092Z" fill="#E8A935"/>
</svg>
