<svg width="16" height="12" viewBox="0 0 16 12" fill="none" xmlns="http://www.w3.org/2000/svg">
<path d="M15.0358 1.64293C14.6373 2.22626 14.1554 2.72328 13.5903 3.134C13.5963 3.21733 13.5992 3.34233 13.5992 3.509C13.5992 4.28281 13.4862 5.05513 13.2602 5.82596C13.0341 6.5968 12.6906 7.33638 12.2296 8.04471C11.7686 8.75305 11.2199 9.37953 10.5834 9.92418C9.94689 10.4688 9.17954 10.9033 8.28132 11.2277C7.3831 11.5522 6.42242 11.7144 5.39929 11.7144C3.78726 11.7144 2.31204 11.2828 0.973633 10.4197C1.18183 10.4435 1.41382 10.4554 1.6696 10.4554C3.00801 10.4554 4.20067 10.0447 5.2476 9.22328C4.62301 9.21138 4.06386 9.01941 3.57014 8.64739C3.07641 8.27537 2.73735 7.80066 2.55295 7.22328C2.74925 7.25305 2.93068 7.26793 3.09723 7.26793C3.35302 7.26793 3.60583 7.23519 3.85566 7.16971C3.18944 7.03281 2.63772 6.70096 2.2005 6.17418C1.76329 5.64739 1.54469 5.03578 1.54469 4.33935V4.30364C1.94918 4.52983 2.38342 4.65185 2.8474 4.66971C2.4548 4.40781 2.14251 4.06555 1.91052 3.64293C1.67853 3.22031 1.56253 2.76197 1.56253 2.26793C1.56253 1.74412 1.6934 1.259 1.95513 0.81257C2.67489 1.69947 3.5508 2.4093 4.58286 2.94203C5.61492 3.47477 6.71985 3.7709 7.89764 3.83043C7.85006 3.60424 7.82626 3.384 7.82626 3.16971C7.82626 2.37209 8.10733 1.69203 8.66946 1.12953C9.23159 0.567034 9.9112 0.285784 10.7083 0.285784C11.5411 0.285784 12.243 0.589355 12.814 1.1965C13.4624 1.0715 14.0721 0.839355 14.6432 0.50007C14.4231 1.18459 14.0008 1.71436 13.3762 2.08936C13.9294 2.02983 14.4826 1.88102 15.0358 1.64293Z" fill="white"/>
</svg>
