<svg width="12" height="12" viewBox="0 0 12 12" fill="none" xmlns="http://www.w3.org/2000/svg">
<path d="M6 12C5.16667 12 4.39062 11.8438 3.67188 11.5312C2.94271 11.2188 2.30469 10.7917 1.75781 10.25C1.21094 9.70833 0.78125 9.07292 0.46875 8.34375C0.15625 7.61458 0 6.83333 0 6C0 5.17708 0.15625 4.40104 0.46875 3.67188C0.78125 2.94271 1.21094 2.30729 1.75781 1.76562C2.30469 1.22396 2.94271 0.796875 3.67188 0.484375C4.39062 0.161458 5.16667 0 6 0C6.83333 0 7.60938 0.161458 8.32812 0.484375C9.05729 0.796875 9.69531 1.22396 10.2422 1.76562C10.7891 2.30729 11.2188 2.94271 11.5312 3.67188C11.8438 4.40104 12 5.17708 12 6C12 6.83333 11.8438 7.61458 11.5312 8.34375C11.2188 9.07292 10.7891 9.70833 10.2422 10.25C9.69531 10.7917 9.05729 11.2188 8.32812 11.5312C7.60938 11.8438 6.83333 12 6 12ZM6 1.34375C5.35417 1.34375 4.75 1.46354 4.1875 1.70312C3.61458 1.95312 3.11719 2.28906 2.69531 2.71094C2.27344 3.13281 1.94271 3.625 1.70312 4.1875C1.45312 4.75 1.32812 5.35417 1.32812 6C1.32812 6.64583 1.45312 7.25521 1.70312 7.82812C1.94271 8.39062 2.27344 8.88281 2.69531 9.30469C3.11719 9.72656 3.61458 10.0625 4.1875 10.3125C4.75 10.5521 5.35417 10.6719 6 10.6719C6.64583 10.6719 7.25 10.5521 7.8125 10.3125C8.38542 10.0625 8.88281 9.72656 9.30469 9.30469C9.72656 8.88281 10.0573 8.39062 10.2969 7.82812C10.5469 7.25521 10.6719 6.64583 10.6719 6C10.6719 5.36458 10.5469 4.76042 10.2969 4.1875C10.0573 3.625 9.72656 3.13281 9.30469 2.71094C8.88281 2.28906 8.38542 1.95312 7.8125 1.70312C7.25 1.46354 6.64583 1.34375 6 1.34375ZM8.67188 7.04688C8.69271 7.01562 8.70833 6.97917 8.71875 6.9375C8.72917 6.89583 8.73438 6.84896 8.73438 6.79688C8.73438 6.66146 8.69531 6.53906 8.61719 6.42969C8.53906 6.32031 8.4375 6.23958 8.3125 6.1875L6.60938 5.48438V2.79688C6.60938 2.61979 6.54427 2.46615 6.41406 2.33594C6.28385 2.20573 6.125 2.14062 5.9375 2.14062C5.75 2.14062 5.59115 2.20573 5.46094 2.33594C5.33073 2.46615 5.26562 2.61979 5.26562 2.79688V5.9375C5.26562 6.07292 5.30469 6.19531 5.38281 6.30469C5.46094 6.41406 5.5625 6.49479 5.6875 6.54688L7.8125 7.42188C7.84375 7.43229 7.88281 7.44271 7.92969 7.45312C7.97656 7.46354 8.02083 7.46875 8.0625 7.46875C8.19792 7.46875 8.32031 7.42969 8.42969 7.35156C8.53906 7.27344 8.61979 7.17708 8.67188 7.0625V7.04688Z" fill="#637381"/>
</svg>
