<svg width="15" height="15" viewBox="0 0 15 15" fill="none" xmlns="http://www.w3.org/2000/svg">
<path d="M14.1552 11.6211C14.1552 11.7969 14.12 12.0312 14.0497 12.3242C13.9794 12.6172 13.9091 12.8457 13.8388 13.0098C13.7333 13.2559 13.5575 13.4639 13.3114 13.6338C13.0653 13.8037 12.831 13.9531 12.6083 14.082C12.3153 14.2344 12.0165 14.3574 11.7118 14.4512C11.4071 14.5449 11.0849 14.5918 10.745 14.5918C10.2763 14.5918 9.82803 14.5156 9.4003 14.3633C8.97256 14.2109 8.5419 14.0527 8.10831 13.8887C7.80362 13.7832 7.50479 13.6631 7.21182 13.5283C6.91885 13.3936 6.63174 13.2383 6.35049 13.0625C5.92862 12.793 5.48917 12.4707 5.03214 12.0957C4.5751 11.7207 4.12979 11.3193 3.6962 10.8916C3.2626 10.4639 2.85831 10.0215 2.48331 9.56445C2.10831 9.10742 1.7919 8.66797 1.53409 8.24609C1.35831 7.96484 1.20303 7.67773 1.06827 7.38477C0.933502 7.0918 0.807526 6.79297 0.690338 6.48828C0.537994 6.05469 0.385651 5.62402 0.233307 5.19629C0.0809631 4.76855 0.00479126 4.32031 0.00479126 3.85156C0.00479126 3.51172 0.0487366 3.18945 0.136627 2.88477C0.224518 2.58008 0.350494 2.28125 0.514557 1.98828C0.643463 1.75391 0.792877 1.5166 0.962799 1.27637C1.13272 1.03613 1.34073 0.863281 1.58682 0.757812C1.75089 0.6875 1.9794 0.617188 2.27237 0.546875C2.56534 0.476562 2.79971 0.441406 2.97549 0.441406C3.01065 0.441406 3.04581 0.444336 3.08096 0.450195C3.11612 0.456055 3.15128 0.464844 3.18643 0.476562C3.2919 0.511719 3.39444 0.623047 3.49405 0.810547C3.59366 0.998047 3.6669 1.13867 3.71378 1.23242C3.87784 1.52539 4.03897 1.81543 4.19717 2.10254C4.35538 2.38965 4.51651 2.67383 4.68057 2.95508C4.7626 3.08398 4.86221 3.22754 4.9794 3.38574C5.09659 3.54395 5.15518 3.69922 5.15518 3.85156C5.15518 4.15625 4.85049 4.50488 4.24112 4.89746C3.63174 5.29004 3.32706 5.62695 3.32706 5.9082C3.32706 6.03711 3.37393 6.18066 3.46768 6.33887C3.56143 6.49707 3.64346 6.64062 3.71378 6.76953C4.2294 7.68359 4.81534 8.46875 5.47159 9.125C6.12784 9.78125 6.91299 10.3613 7.82706 10.8652C7.94424 10.9355 8.08487 11.0205 8.24893 11.1201C8.41299 11.2197 8.55948 11.2695 8.68839 11.2695C8.95792 11.2695 9.2919 10.9648 9.69034 10.3555C10.0888 9.74609 10.4403 9.44141 10.745 9.44141C10.8974 9.44141 11.0526 9.5 11.2108 9.61719C11.369 9.73438 11.5126 9.83398 11.6415 9.91602C11.9228 10.0801 12.2069 10.2412 12.494 10.3994C12.7812 10.5576 13.0653 10.7129 13.3466 10.8652C13.4521 10.9238 13.5985 11.0029 13.786 11.1025C13.9735 11.2021 14.0849 11.3047 14.12 11.4102C14.1317 11.4453 14.1405 11.4805 14.1464 11.5156C14.1523 11.5508 14.1552 11.5859 14.1552 11.6211Z" fill="white"/>
</svg>
