<svg width="18" height="15" viewBox="0 0 18 15" fill="none" xmlns="http://www.w3.org/2000/svg">
<path d="M18 5.29492V13.2754C18 13.709 17.8418 14.084 17.5254 14.4004C17.209 14.7168 16.834 14.875 16.4004 14.875H1.59961C1.16602 14.875 0.791016 14.7168 0.474609 14.4004C0.158203 14.084 0 13.709 0 13.2754V5.29492C0.152344 5.45898 0.313477 5.61426 0.483398 5.76074C0.65332 5.90723 0.832031 6.04492 1.01953 6.17383C1.42969 6.45508 1.8457 6.73633 2.26758 7.01758C2.68945 7.29883 3.1084 7.58301 3.52441 7.87012C3.94043 8.15723 4.35352 8.44727 4.76367 8.74023C5.18555 9.0332 5.60156 9.33203 6.01172 9.63672C6.43359 9.94141 6.89941 10.249 7.40918 10.5596C7.91895 10.8701 8.44336 11.0254 8.98242 11.0254H9.01758C9.55664 11.0254 10.0811 10.8701 10.5908 10.5596C11.1006 10.249 11.5664 9.94141 11.9883 9.63672C12.3984 9.33203 12.8145 9.03906 13.2363 8.75781C13.6465 8.46484 14.0596 8.17188 14.4756 7.87891C14.8916 7.58594 15.3105 7.29883 15.7324 7.01758C16.1543 6.73633 16.5762 6.45508 16.998 6.17383C17.1738 6.04492 17.3467 5.90723 17.5166 5.76074C17.6865 5.61426 17.8477 5.45898 18 5.29492ZM18 2.3418C18 2.9043 17.8242 3.42578 17.4727 3.90625C17.1211 4.38672 16.7227 4.7793 16.2773 5.08398C15.8906 5.36523 15.498 5.64062 15.0996 5.91016C14.7129 6.17969 14.3232 6.44922 13.9307 6.71875C13.5381 6.98828 13.1426 7.26367 12.7441 7.54492C12.3574 7.81445 11.9707 8.08398 11.584 8.35352C11.2559 8.57617 10.8457 8.86035 10.3535 9.20605C9.86133 9.55176 9.41602 9.72461 9.01758 9.72461H8.98242C8.58398 9.72461 8.13867 9.55176 7.64648 9.20605C7.1543 8.86035 6.74414 8.57617 6.41602 8.35352C6.0293 8.08398 5.64258 7.81445 5.25586 7.54492C4.85742 7.26367 4.46191 6.98828 4.06934 6.71875C3.67676 6.44922 3.28711 6.17969 2.90039 5.91016C2.50195 5.64062 2.10938 5.36523 1.72266 5.08398C1.37109 4.84961 0.996094 4.4834 0.597656 3.98535C0.199219 3.4873 0 3.00977 0 2.55273C0 2.06055 0.134766 1.63281 0.404297 1.26953C0.673828 0.90625 1.07227 0.724609 1.59961 0.724609H16.4004C16.834 0.724609 17.209 0.882812 17.5254 1.19922C17.8418 1.51562 18 1.89648 18 2.3418Z" fill="white"/>
</svg>
