<svg width="11" height="16" viewBox="0 0 11 16" fill="none" xmlns="http://www.w3.org/2000/svg">
<path d="M7.72519 5.5918C7.72519 4.87695 7.47324 4.27051 6.96933 3.77246C6.46542 3.27441 5.86191 3.02539 5.15878 3.02539C4.44394 3.02539 3.83456 3.27441 3.33066 3.77246C2.82675 4.27051 2.5748 4.87695 2.5748 5.5918C2.5748 6.29492 2.82675 6.89844 3.33066 7.40234C3.83456 7.90625 4.44394 8.1582 5.15878 8.1582C5.86191 8.1582 6.46542 7.90625 6.96933 7.40234C7.47324 6.89844 7.72519 6.29492 7.72519 5.5918ZM10.2916 5.5918C10.2916 5.89648 10.2682 6.2041 10.2213 6.51465C10.1744 6.8252 10.0865 7.11523 9.95761 7.38477L6.30136 15.1543C6.19589 15.377 6.03769 15.5527 5.82675 15.6816C5.61581 15.8105 5.39316 15.875 5.15878 15.875C4.91269 15.875 4.68417 15.8105 4.47324 15.6816C4.2623 15.5527 4.1041 15.377 3.99863 15.1543L0.342377 7.38477C0.21347 7.11523 0.12558 6.8252 0.0787048 6.51465C0.0318298 6.2041 0.00839233 5.89648 0.00839233 5.5918C0.00839233 4.87695 0.143158 4.20898 0.412689 3.58789C0.68222 2.9668 1.04843 2.42188 1.51132 1.95312C1.97421 1.48438 2.52206 1.11523 3.15488 0.845703C3.77597 0.576172 4.44394 0.441406 5.15878 0.441406C5.86191 0.441406 6.52988 0.576172 7.16269 0.845703C7.78378 1.11523 8.32578 1.48438 8.78867 1.95312C9.25156 2.42188 9.61777 2.9668 9.8873 3.58789C10.1568 4.20898 10.2916 4.87695 10.2916 5.5918Z" fill="white"/>
</svg>
