<svg width="17" height="13" viewBox="0 0 17 13" fill="none" xmlns="http://www.w3.org/2000/svg">
<path d="M16.6534 2.27236C16.4617 1.55736 15.8992 0.993196 15.1851 0.800696C13.8801 0.442363 8.65922 0.43653 8.65922 0.43653C8.65922 0.43653 3.43921 0.430696 2.13338 0.773196C1.43338 0.96403 0.855044 1.5407 0.66171 2.25486C0.317544 3.55986 0.31421 6.26652 0.31421 6.26652C0.31421 6.26652 0.310877 8.98652 0.652543 10.2782C0.84421 10.9924 1.40671 11.5565 2.12171 11.749C3.44004 12.1074 8.64672 12.1132 8.64672 12.1132C8.64672 12.1132 13.8676 12.119 15.1726 11.7774C15.8859 11.5857 16.4509 11.0224 16.6451 10.3082C16.9901 9.00402 16.9926 6.29819 16.9926 6.29819C16.9926 6.29819 17.0092 3.57736 16.6534 2.27236ZM6.98921 8.77402L6.99339 3.77403L11.3326 6.27819L6.98921 8.77402Z" fill="#E36756"/>
</svg>
